<?xml version="1.0" encoding="utf-8"?>
<!-- Generator: Adobe Illustrator 23.0.2, SVG Export Plug-In . SVG Version: 6.00 Build 0)  -->
<svg version="1.1" id="Capa_1" xmlns="http://www.w3.org/2000/svg" xmlns:xlink="http://www.w3.org/1999/xlink" x="0px" y="0px"
	 viewBox="0 0 109.27 48.02" style="enable-background:new 0 0 109.27 48.02;" xml:space="preserve">
<style type="text/css">
	.st0{fill-rule:evenodd;clip-rule:evenodd;fill:#412468;stroke:#412468;stroke-miterlimit:10;}
	.st1{fill-rule:evenodd;clip-rule:evenodd;fill:#009B8F;stroke:#009B8F;stroke-miterlimit:10;}
</style>
<g>
	<path class="st0" d="M41.38,27.71c0,1.68-0.32,3.27-0.96,4.76c-0.64,1.49-1.52,2.78-2.62,3.88c-1.12,1.1-2.42,1.97-3.9,2.61
		c-1.5,0.63-3.09,0.96-4.79,0.96c-1.52,0-2.98-0.27-4.37-0.8c-1.4-0.53-2.67-1.3-3.81-2.33c-1.13,1.02-2.38,1.79-3.77,2.33
		c-1.39,0.53-2.86,0.8-4.39,0.8c-1.7,0-3.3-0.33-4.77-0.96c-1.49-0.65-2.78-1.52-3.88-2.61c-1.12-1.11-1.99-2.39-2.63-3.88
		c-0.64-1.49-0.96-3.08-0.96-4.76V5.4h8.2v22.31c0,0.56,0.11,1.08,0.32,1.58c0.21,0.49,0.5,0.92,0.87,1.29
		c0.37,0.37,0.8,0.66,1.29,0.87c0.49,0.2,1.01,0.32,1.58,0.32c0.55,0,1.09-0.11,1.59-0.32c0.5-0.22,0.94-0.5,1.32-0.87
		c0.38-0.37,0.67-0.8,0.88-1.29c0.21-0.49,0.32-1.01,0.32-1.58V13.24h8.16v14.47c0,0.56,0.11,1.09,0.33,1.58
		c0.22,0.49,0.51,0.92,0.89,1.29c0.37,0.37,0.8,0.66,1.29,0.87c0.48,0.2,1.01,0.32,1.57,0.32c0.56,0,1.1-0.11,1.6-0.32
		c0.49-0.22,0.93-0.5,1.3-0.87c0.37-0.37,0.67-0.8,0.89-1.29c0.22-0.49,0.33-1.01,0.33-1.58V5.26h8.16V27.71z"/>
	<path class="st0" d="M60.06,46.33c-0.3,0.02-0.6,0.03-0.9,0.03c-1.7,0-3.3-0.33-4.77-0.96c-1.49-0.65-2.78-1.52-3.88-2.61
		c-1.12-1.11-1.99-2.4-2.63-3.88c-0.63-1.5-0.96-3.08-0.96-4.76V13.73c0.2,0.1,0.4,0.2,0.61,0.29c1.08,0.48,2.24,0.71,3.47,0.71
		c1.23,0,2.39-0.23,3.47-0.71c0.22-0.09,0.43-0.19,0.64-0.3v20.43c0,0.56,0.1,1.09,0.32,1.58c0.2,0.49,0.5,0.92,0.87,1.29
		c0.37,0.37,0.8,0.66,1.29,0.87c0.49,0.21,1.01,0.32,1.58,0.32c0.31,0,0.61-0.03,0.9-0.1V46.33z"/>
	<path class="st0" d="M71.35,46.36h-8.22V5.24h16.46c1.52,0,2.97,0.2,4.37,0.59c1.39,0.39,2.69,0.95,3.92,1.66
		c1.21,0.71,2.32,1.58,3.32,2.57c1.01,1.01,1.87,2.12,2.58,3.35c0.71,1.22,1.27,2.54,1.66,3.93c0.39,1.4,0.59,2.85,0.59,4.36
		c0,2.26-0.43,4.39-1.29,6.38c-0.86,2-2.04,3.75-3.52,5.24c-1.49,1.49-3.24,2.66-5.24,3.52c-2,0.86-4.12,1.29-6.38,1.29h-8.23V46.36
		L71.35,46.36z M71.35,13.47v16.46h8.23c1.14,0,2.19-0.22,3.19-0.65c0.99-0.43,1.86-1.02,2.6-1.76c0.74-0.74,1.33-1.62,1.76-2.62
		c0.43-1,0.65-2.07,0.65-3.2c0-1.13-0.22-2.19-0.65-3.19c-0.43-1.01-1.02-1.88-1.76-2.62c-0.74-0.74-1.61-1.34-2.6-1.76
		c-1-0.43-2.06-0.65-3.19-0.65H71.35z"/>
	<path class="st1" d="M56.66,5.96c0,0.76-0.14,1.46-0.43,2.13c-0.3,0.66-0.69,1.23-1.19,1.72c-0.5,0.49-1.09,0.88-1.76,1.17
		c-0.67,0.3-1.38,0.44-2.14,0.44c-0.76,0-1.48-0.14-2.14-0.44c-0.68-0.29-1.26-0.68-1.74-1.17c-0.49-0.49-0.88-1.07-1.18-1.72
		c-0.29-0.67-0.43-1.37-0.43-2.13c0-0.75,0.14-1.44,0.43-2.12c0.3-0.67,0.69-1.25,1.18-1.74c0.48-0.49,1.07-0.88,1.74-1.17
		c0.67-0.29,1.38-0.43,2.14-0.43c0.76,0,1.47,0.14,2.14,0.43c0.68,0.29,1.26,0.68,1.76,1.17c0.5,0.49,0.89,1.08,1.19,1.74
		C56.51,4.52,56.66,5.21,56.66,5.96z"/>
	<path class="st1" d="M97.76,42.06c0-0.76,0.14-1.47,0.43-2.13c0.3-0.66,0.69-1.23,1.19-1.72c0.5-0.49,1.09-0.88,1.76-1.17
		c0.67-0.3,1.38-0.44,2.14-0.44c0.76,0,1.48,0.14,2.14,0.44c0.68,0.29,1.26,0.68,1.74,1.17c0.49,0.49,0.88,1.07,1.18,1.72
		c0.29,0.67,0.43,1.37,0.43,2.13c0,0.75-0.14,1.44-0.43,2.12c-0.3,0.67-0.69,1.25-1.18,1.74c-0.48,0.49-1.07,0.88-1.74,1.17
		c-0.67,0.29-1.38,0.43-2.14,0.43c-0.76,0-1.47-0.14-2.14-0.43c-0.68-0.29-1.26-0.68-1.76-1.17c-0.5-0.49-0.89-1.08-1.19-1.74
		C97.9,43.5,97.76,42.8,97.76,42.06z"/>
	<path class="st1" d="M107.37,2.03v32.12c-0.2-0.1-0.4-0.2-0.61-0.29c-1.08-0.48-2.24-0.71-3.47-0.71c-1.23,0-2.39,0.23-3.47,0.71
		c-0.22,0.09-0.43,0.19-0.64,0.3V2.03H107.37z"/>
</g>
</svg>
