<?xml version="1.0" encoding="utf-8"?>
<!-- Generator: Adobe Illustrator 23.0.2, SVG Export Plug-In . SVG Version: 6.00 Build 0)  -->
<svg version="1.1" id="Capa_1" xmlns="http://www.w3.org/2000/svg" xmlns:xlink="http://www.w3.org/1999/xlink" x="0px" y="0px"
	 viewBox="0 0 106.3 46.16" style="enable-background:new 0 0 106.3 46.16;" xml:space="preserve">
<style type="text/css">
	.st0{fill-rule:evenodd;clip-rule:evenodd;fill:#FFFFFF;}
</style>
<g>
	<path class="st0" d="M40.14,26.72c0,1.65-0.32,3.21-0.95,4.68c-0.63,1.46-1.49,2.73-2.57,3.81c-1.1,1.08-2.37,1.93-3.83,2.56
		c-1.47,0.62-3.04,0.95-4.71,0.95c-1.49,0-2.93-0.26-4.29-0.78c-1.38-0.52-2.62-1.28-3.74-2.28c-1.11,1.01-2.33,1.76-3.7,2.28
		c-1.37,0.52-2.81,0.78-4.31,0.78c-1.67,0-3.24-0.32-4.69-0.95c-1.46-0.63-2.73-1.49-3.81-2.56c-1.1-1.09-1.96-2.35-2.59-3.81
		C0.32,29.93,0,28.37,0,26.72V4.81h8.05v21.91c0,0.55,0.11,1.06,0.31,1.55c0.21,0.48,0.49,0.9,0.85,1.27
		c0.36,0.36,0.78,0.64,1.27,0.85c0.48,0.2,1,0.31,1.55,0.31c0.54,0,1.07-0.11,1.56-0.31c0.49-0.21,0.93-0.49,1.3-0.85
		c0.37-0.36,0.66-0.79,0.86-1.27c0.21-0.48,0.31-1,0.31-1.55V12.51h8.02v14.21c0,0.55,0.11,1.07,0.32,1.55
		c0.22,0.48,0.5,0.9,0.88,1.27c0.36,0.36,0.78,0.64,1.27,0.85c0.47,0.2,1,0.31,1.54,0.31c0.55,0,1.08-0.11,1.57-0.31
		c0.48-0.21,0.92-0.49,1.28-0.85c0.36-0.36,0.66-0.78,0.87-1.27c0.22-0.48,0.32-1,0.32-1.55V4.67h8.02V26.72z"/>
	<path class="st0" d="M58.48,45c-0.29,0.02-0.59,0.03-0.89,0.03c-1.67,0-3.24-0.32-4.69-0.95c-1.46-0.63-2.73-1.49-3.81-2.56
		c-1.1-1.09-1.95-2.35-2.58-3.81c-0.62-1.47-0.95-3.03-0.95-4.68V12.99c0.2,0.1,0.4,0.19,0.6,0.28c1.06,0.47,2.2,0.7,3.41,0.7
		c1.21,0,2.35-0.23,3.41-0.7c0.22-0.09,0.43-0.19,0.63-0.29v20.06c0,0.55,0.1,1.07,0.31,1.55c0.2,0.48,0.49,0.91,0.85,1.27
		c0.36,0.36,0.78,0.64,1.27,0.85c0.48,0.2,1,0.31,1.55,0.31c0.3,0,0.6-0.03,0.89-0.1V45z"/>
	<path class="st0" d="M69.56,45.03h-8.07V4.65h16.16c1.49,0,2.91,0.19,4.29,0.58c1.36,0.38,2.64,0.93,3.84,1.63
		c1.19,0.7,2.28,1.55,3.26,2.53c0.99,0.99,1.84,2.09,2.54,3.29c0.7,1.2,1.25,2.49,1.63,3.85c0.38,1.37,0.58,2.8,0.58,4.28
		c0,2.22-0.42,4.31-1.27,6.27c-0.85,1.96-2,3.68-3.46,5.14c-1.46,1.46-3.18,2.61-5.14,3.46c-1.96,0.85-4.05,1.27-6.27,1.27h-8.08
		V45.03L69.56,45.03z M69.56,12.73v16.16h8.08c1.12,0,2.15-0.21,3.13-0.63c0.97-0.42,1.83-1,2.56-1.73
		c0.73-0.73,1.31-1.59,1.73-2.58c0.42-0.98,0.63-2.03,0.63-3.14c0-1.11-0.21-2.15-0.63-3.13c-0.42-0.99-1-1.85-1.73-2.58
		c-0.73-0.73-1.59-1.32-2.56-1.73c-0.98-0.42-2.02-0.63-3.13-0.63H69.56z"/>
	<path class="st0" d="M55.14,5.36c0,0.74-0.14,1.44-0.42,2.09c-0.29,0.64-0.67,1.21-1.17,1.69c-0.49,0.48-1.07,0.86-1.73,1.15
		c-0.65,0.29-1.36,0.43-2.1,0.43c-0.74,0-1.45-0.14-2.1-0.43c-0.66-0.28-1.24-0.66-1.71-1.15c-0.48-0.48-0.86-1.05-1.16-1.69
		c-0.28-0.65-0.42-1.35-0.42-2.09c0-0.73,0.14-1.42,0.42-2.08c0.29-0.65,0.67-1.23,1.16-1.71c0.47-0.48,1.05-0.86,1.71-1.15
		C48.27,0.14,48.97,0,49.72,0c0.74,0,1.45,0.14,2.1,0.42c0.66,0.28,1.24,0.66,1.73,1.15c0.49,0.48,0.88,1.06,1.17,1.71
		C55,3.94,55.14,4.63,55.14,5.36z"/>
	<path class="st0" d="M95.49,40.8c0-0.74,0.14-1.44,0.42-2.09c0.29-0.64,0.67-1.21,1.17-1.69c0.49-0.48,1.07-0.86,1.73-1.15
		c0.65-0.29,1.36-0.43,2.1-0.43c0.74,0,1.45,0.14,2.1,0.43c0.66,0.28,1.24,0.66,1.71,1.15c0.48,0.48,0.86,1.05,1.16,1.69
		c0.28,0.65,0.42,1.35,0.42,2.09c0,0.73-0.14,1.42-0.42,2.08c-0.29,0.65-0.67,1.23-1.16,1.71c-0.47,0.48-1.05,0.86-1.71,1.15
		c-0.65,0.28-1.36,0.42-2.1,0.42c-0.74,0-1.45-0.14-2.1-0.42c-0.66-0.28-1.24-0.66-1.73-1.15c-0.49-0.48-0.88-1.06-1.17-1.71
		C95.63,42.22,95.49,41.53,95.49,40.8z"/>
	<path class="st0" d="M104.93,1.51v31.53c-0.2-0.1-0.4-0.19-0.6-0.28c-1.06-0.47-2.2-0.7-3.41-0.7c-1.21,0-2.35,0.23-3.41,0.7
		c-0.22,0.09-0.43,0.19-0.63,0.29V1.51H104.93z"/>
</g>
</svg>
